<mxfile host="65bd71144e">
    <diagram id="QgL2F35Snk15M9HPcK7Z" name="System Basics">
        <mxGraphModel dx="1770" dy="852" grid="1" gridSize="10" guides="1" tooltips="1" connect="1" arrows="1" fold="1" page="1" pageScale="1" pageWidth="850" pageHeight="1100" math="0" shadow="0">
            <root>
                <mxCell id="0"/>
                <mxCell id="1" parent="0"/>
                <mxCell id="5" value="&lt;span style=&quot;font-size: 18px;&quot;&gt;Upload API&lt;/span&gt;&lt;br&gt;&lt;br&gt;&lt;font style=&quot;font-size: 12px;&quot;&gt;w TLS&lt;/font&gt;" style="rounded=0;whiteSpace=wrap;html=1;" parent="1" vertex="1">
                    <mxGeometry x="80" y="520" width="120" height="280" as="geometry"/>
                </mxCell>
                <mxCell id="6" value="&lt;font style=&quot;font-size: 18px;&quot;&gt;User Service&lt;/font&gt;&lt;br&gt;&lt;br&gt;Create User&lt;br&gt;Auth User" style="rounded=0;whiteSpace=wrap;html=1;" parent="1" vertex="1">
                    <mxGeometry x="380" y="440" width="120" height="200" as="geometry"/>
                </mxCell>
                <mxCell id="7" value="&lt;font style=&quot;font-size: 18px;&quot;&gt;Upload Service&lt;/font&gt;&lt;br&gt;&lt;br&gt;Upload Images&lt;br&gt;Upload Videos&lt;br&gt;Calculate what to upload next" style="rounded=0;whiteSpace=wrap;html=1;" parent="1" vertex="1">
                    <mxGeometry x="200" y="680" width="120" height="120" as="geometry"/>
                </mxCell>
                <mxCell id="9" value="&lt;span style=&quot;font-size: 18px;&quot;&gt;Galary Backend&lt;/span&gt;&lt;br&gt;&lt;br&gt;&lt;font style=&quot;font-size: 12px;&quot;&gt;Web Service with UI that shows images&lt;br&gt;&lt;br&gt;w TLS&lt;br&gt;&lt;/font&gt;" style="rounded=0;whiteSpace=wrap;html=1;" parent="1" vertex="1">
                    <mxGeometry x="80" y="40" width="120" height="280" as="geometry"/>
                </mxCell>
                <mxCell id="10" value="&lt;font style=&quot;&quot;&gt;&lt;span style=&quot;font-size: 18px;&quot;&gt;Media Repository&lt;/span&gt;&lt;br&gt;&lt;br&gt;&lt;font style=&quot;font-size: 12px;&quot;&gt;Encrypted Blobs&lt;/font&gt;&lt;br&gt;&lt;/font&gt;" style="shape=cylinder3;whiteSpace=wrap;html=1;boundedLbl=1;backgroundOutline=1;size=15;fontSize=12;" parent="1" vertex="1">
                    <mxGeometry x="723" y="50" width="110" height="750" as="geometry"/>
                </mxCell>
                <mxCell id="20" style="edgeStyle=none;html=1;exitX=1;exitY=0.5;exitDx=0;exitDy=0;entryX=0;entryY=1;entryDx=0;entryDy=0;fontSize=18;" parent="1" source="12" target="18" edge="1">
                    <mxGeometry relative="1" as="geometry"/>
                </mxCell>
                <mxCell id="12" value="&lt;span style=&quot;font-size: 18px;&quot;&gt;Encrypt Service&lt;/span&gt;&lt;br&gt;&lt;font style=&quot;font-size: 12px;&quot;&gt;&lt;br&gt;Encrypts media before saving in repo&lt;/font&gt;" style="rounded=0;whiteSpace=wrap;html=1;" parent="1" vertex="1">
                    <mxGeometry x="320" y="680" width="120" height="120" as="geometry"/>
                </mxCell>
                <mxCell id="14" style="edgeStyle=none;html=1;exitX=0;exitY=0;exitDx=0;exitDy=0;entryX=1;entryY=0.5;entryDx=0;entryDy=0;fontSize=12;" parent="1" source="18" target="13" edge="1">
                    <mxGeometry relative="1" as="geometry"/>
                </mxCell>
                <mxCell id="13" value="&lt;span style=&quot;font-size: 18px;&quot;&gt;Decrypt Service&lt;/span&gt;&lt;br&gt;&lt;font style=&quot;font-size: 12px;&quot;&gt;&lt;br&gt;Decrypts media before sending to user&lt;/font&gt;" style="rounded=0;whiteSpace=wrap;html=1;" parent="1" vertex="1">
                    <mxGeometry x="200" y="40" width="120" height="120" as="geometry"/>
                </mxCell>
                <mxCell id="16" value="&lt;font style=&quot;&quot;&gt;&lt;span style=&quot;font-size: 18px;&quot;&gt;Media DB&lt;/span&gt;&lt;br&gt;&lt;font style=&quot;font-size: 12px;&quot;&gt;&lt;br&gt;&lt;div style=&quot;text-align: left;&quot;&gt;&lt;span style=&quot;background-color: initial;&quot;&gt;user name&lt;/span&gt;&lt;/div&gt;&lt;div style=&quot;text-align: left;&quot;&gt;&lt;span style=&quot;background-color: initial;&quot;&gt;device name&lt;/span&gt;&lt;/div&gt;&lt;div style=&quot;text-align: left;&quot;&gt;&lt;span style=&quot;background-color: initial;&quot;&gt;date&lt;/span&gt;&lt;/div&gt;&lt;div style=&quot;text-align: left;&quot;&gt;&lt;span style=&quot;background-color: initial;&quot;&gt;blob path&lt;/span&gt;&lt;/div&gt;&lt;div style=&quot;text-align: left;&quot;&gt;&lt;span style=&quot;background-color: initial;&quot;&gt;status&lt;/span&gt;&lt;/div&gt;&lt;/font&gt;&lt;/font&gt;" style="shape=cylinder3;whiteSpace=wrap;html=1;boundedLbl=1;backgroundOutline=1;size=15;fontSize=12;" parent="1" vertex="1">
                    <mxGeometry x="510" y="144" width="110" height="210" as="geometry"/>
                </mxCell>
                <mxCell id="17" value="&lt;font style=&quot;&quot;&gt;&lt;span style=&quot;font-size: 18px;&quot;&gt;User DB&lt;/span&gt;&lt;br&gt;&lt;br&gt;&lt;div style=&quot;text-align: left;&quot;&gt;&lt;span style=&quot;background-color: initial;&quot;&gt;user name&lt;/span&gt;&lt;/div&gt;&lt;font style=&quot;font-size: 12px;&quot;&gt;&lt;div style=&quot;text-align: left;&quot;&gt;&lt;span style=&quot;background-color: initial;&quot;&gt;devices&lt;/span&gt;&lt;/div&gt;&lt;div style=&quot;text-align: left;&quot;&gt;&lt;span style=&quot;background-color: initial;&quot;&gt;current auth key&lt;/span&gt;&lt;/div&gt;&lt;/font&gt;&lt;/font&gt;" style="shape=cylinder3;whiteSpace=wrap;html=1;boundedLbl=1;backgroundOutline=1;size=15;fontSize=12;" parent="1" vertex="1">
                    <mxGeometry x="510" y="430" width="110" height="210" as="geometry"/>
                </mxCell>
                <mxCell id="18" value="&lt;font style=&quot;font-size: 18px;&quot;&gt;Media Repo Service&lt;/font&gt;" style="rounded=0;whiteSpace=wrap;html=1;fontSize=12;" parent="1" vertex="1">
                    <mxGeometry x="630" y="50" width="80" height="750" as="geometry"/>
                </mxCell>
                <mxCell id="21" style="html=1;exitX=0;exitY=0.25;exitDx=0;exitDy=0;entryX=1;entryY=0.5;entryDx=0;entryDy=0;fontSize=18;" parent="1" source="19" target="9" edge="1">
                    <mxGeometry relative="1" as="geometry"/>
                </mxCell>
                <mxCell id="22" style="edgeStyle=none;html=1;exitX=0;exitY=0.75;exitDx=0;exitDy=0;entryX=0.5;entryY=0;entryDx=0;entryDy=0;fontSize=18;startArrow=classic;startFill=1;" parent="1" source="19" target="7" edge="1">
                    <mxGeometry relative="1" as="geometry"/>
                </mxCell>
                <mxCell id="19" value="&lt;font style=&quot;font-size: 18px;&quot;&gt;Media Service&lt;/font&gt;&lt;br&gt;&lt;br&gt;Create new Media record&lt;br&gt;Update media record" style="rounded=0;whiteSpace=wrap;html=1;" parent="1" vertex="1">
                    <mxGeometry x="380" y="154" width="120" height="200" as="geometry"/>
                </mxCell>
                <mxCell id="24" value="Questions&lt;br&gt;&lt;br&gt;&lt;font style=&quot;font-size: 12px;&quot;&gt;1. Does the communication between services, in the vpc, should be encrypted?&lt;br&gt;2. Who initiates the Analytics process for images?&lt;br&gt;&lt;span style=&quot;white-space: pre;&quot;&gt;&#9;&lt;/span&gt;For example: create thumbnail image for each uploaded image, extract faces from images, adding insights on the images&lt;br&gt;&lt;/font&gt;&lt;font style=&quot;font-size: 12px;&quot;&gt;3. Where is the images encrypting key should be? Idea: The encryptor has RSA public, creates random simple key, encrypt image, encrypt the simple key and saves next to the image. Only the decryptor has the RSA private. Issue: Every component that needs to work with the images, needs the private key.&lt;/font&gt;&lt;br&gt;&lt;span style=&quot;white-space: pre;&quot;&gt;&#9;&lt;/span&gt;" style="rounded=0;whiteSpace=wrap;html=1;fontSize=18;align=left;" parent="1" vertex="1">
                    <mxGeometry x="80" y="870" width="720" height="150" as="geometry"/>
                </mxCell>
            </root>
        </mxGraphModel>
    </diagram>
    <diagram id="J6n2KZWz-x4-rg-TRpH0" name="Encryption Design">
        <mxGraphModel dx="1770" dy="852" grid="1" gridSize="10" guides="1" tooltips="1" connect="1" arrows="1" fold="1" page="1" pageScale="1" pageWidth="850" pageHeight="1100" math="0" shadow="0">
            <root>
                <mxCell id="0"/>
                <mxCell id="1" parent="0"/>
                <mxCell id="-aMRNeoOX8iqkM_VXLn5-29" value="New&lt;br&gt;Encrypted&lt;br&gt;Keys" style="edgeStyle=none;html=1;exitX=0.75;exitY=1;exitDx=0;exitDy=0;fontSize=14;entryX=0.5;entryY=0;entryDx=0;entryDy=0;" edge="1" parent="1" source="-aMRNeoOX8iqkM_VXLn5-23" target="rumAA7f_7I75piA4Aqyb-1">
                    <mxGeometry x="-0.0595" y="33" relative="1" as="geometry">
                        <mxPoint x="410" y="540" as="targetPoint"/>
                        <mxPoint y="1" as="offset"/>
                    </mxGeometry>
                </mxCell>
                <mxCell id="-aMRNeoOX8iqkM_VXLn5-23" value="Role Keys Service" style="whiteSpace=wrap;html=1;fontSize=14;verticalAlign=middle;rounded=0;" vertex="1" parent="1">
                    <mxGeometry x="380" y="349" width="110" height="120" as="geometry"/>
                </mxCell>
                <mxCell id="-aMRNeoOX8iqkM_VXLn5-30" value="Old&lt;br&gt;Encrypted&lt;br&gt;Keys" style="edgeStyle=none;html=1;exitX=0.5;exitY=0;exitDx=0;exitDy=0;entryX=0.25;entryY=1;entryDx=0;entryDy=0;fontSize=14;" edge="1" parent="1" source="rumAA7f_7I75piA4Aqyb-1" target="-aMRNeoOX8iqkM_VXLn5-23">
                    <mxGeometry x="0.047" y="39" relative="1" as="geometry">
                        <mxPoint y="-1" as="offset"/>
                    </mxGeometry>
                </mxCell>
                <mxCell id="rumAA7f_7I75piA4Aqyb-1" value="Media DB Service" style="whiteSpace=wrap;html=1;fontSize=14;rounded=0;verticalAlign=top;align=center;" vertex="1" parent="1">
                    <mxGeometry x="180" y="650" width="500" height="90" as="geometry"/>
                </mxCell>
                <mxCell id="l2IbhDjE2RAJmLnxuJ9P-1" value="Upload API Service" style="rounded=0;whiteSpace=wrap;html=1;fontSize=14;align=left;verticalAlign=top;" vertex="1" parent="1">
                    <mxGeometry x="30" y="250" width="300" height="300" as="geometry"/>
                </mxCell>
                <mxCell id="xt_n9OCokeOu3tBRseu8-10" value="User's&amp;nbsp;Machine" style="rounded=0;whiteSpace=wrap;html=1;fontSize=14;verticalAlign=top;align=left;" vertex="1" parent="1">
                    <mxGeometry x="30" y="10" width="780" height="200" as="geometry"/>
                </mxCell>
                <mxCell id="xt_n9OCokeOu3tBRseu8-12" value="" style="edgeStyle=none;html=1;fontSize=14;" edge="1" parent="1" source="xt_n9OCokeOu3tBRseu8-8" target="xt_n9OCokeOu3tBRseu8-9">
                    <mxGeometry relative="1" as="geometry"/>
                </mxCell>
                <mxCell id="xt_n9OCokeOu3tBRseu8-8" value="" style="sketch=0;outlineConnect=0;fontColor=#232F3E;gradientColor=none;fillColor=#D45B07;strokeColor=none;dashed=0;verticalLabelPosition=bottom;verticalAlign=top;align=center;html=1;fontSize=12;fontStyle=0;aspect=fixed;pointerEvents=1;shape=mxgraph.aws4.container_registry_image;" vertex="1" parent="1">
                    <mxGeometry x="160" y="40" width="48" height="48" as="geometry"/>
                </mxCell>
                <mxCell id="xt_n9OCokeOu3tBRseu8-14" value="" style="edgeStyle=none;html=1;fontSize=14;" edge="1" parent="1" source="xt_n9OCokeOu3tBRseu8-9" target="xt_n9OCokeOu3tBRseu8-13">
                    <mxGeometry relative="1" as="geometry"/>
                </mxCell>
                <mxCell id="xt_n9OCokeOu3tBRseu8-9" value="TLS Encrypt Image" style="rounded=0;whiteSpace=wrap;html=1;fontSize=14;" vertex="1" parent="1">
                    <mxGeometry x="125" y="130" width="120" height="60" as="geometry"/>
                </mxCell>
                <mxCell id="xt_n9OCokeOu3tBRseu8-16" value="" style="edgeStyle=none;html=1;fontSize=14;" edge="1" parent="1" source="xt_n9OCokeOu3tBRseu8-13" target="xt_n9OCokeOu3tBRseu8-15">
                    <mxGeometry relative="1" as="geometry"/>
                </mxCell>
                <mxCell id="xt_n9OCokeOu3tBRseu8-13" value="TLS Decrypt" style="whiteSpace=wrap;html=1;fontSize=14;rounded=0;" vertex="1" parent="1">
                    <mxGeometry x="125" y="296" width="120" height="60" as="geometry"/>
                </mxCell>
                <mxCell id="iiIGLI2l7tCZnAi1BfDW-5" value="" style="edgeStyle=none;html=1;fontSize=14;" edge="1" parent="1" source="xt_n9OCokeOu3tBRseu8-15" target="iiIGLI2l7tCZnAi1BfDW-3">
                    <mxGeometry relative="1" as="geometry"/>
                </mxCell>
                <mxCell id="rumAA7f_7I75piA4Aqyb-2" style="edgeStyle=none;html=1;exitX=0.75;exitY=1;exitDx=0;exitDy=0;entryX=0.5;entryY=0;entryDx=0;entryDy=0;fontSize=14;" edge="1" parent="1" source="xt_n9OCokeOu3tBRseu8-15" target="iiIGLI2l7tCZnAi1BfDW-8">
                    <mxGeometry relative="1" as="geometry"/>
                </mxCell>
                <mxCell id="xt_n9OCokeOu3tBRseu8-15" value="Create Unique Encryption Key" style="whiteSpace=wrap;html=1;fontSize=14;rounded=0;" vertex="1" parent="1">
                    <mxGeometry x="125" y="379" width="120" height="60" as="geometry"/>
                </mxCell>
                <mxCell id="xt_n9OCokeOu3tBRseu8-17" value="Media Repo Service" style="whiteSpace=wrap;html=1;fontSize=14;rounded=0;verticalAlign=top;align=center;" vertex="1" parent="1">
                    <mxGeometry x="30" y="770" width="770" height="90" as="geometry"/>
                </mxCell>
                <mxCell id="iiIGLI2l7tCZnAi1BfDW-7" value="" style="edgeStyle=none;html=1;fontSize=14;entryX=0.5;entryY=0;entryDx=0;entryDy=0;" edge="1" parent="1" source="iiIGLI2l7tCZnAi1BfDW-3" target="iiIGLI2l7tCZnAi1BfDW-4">
                    <mxGeometry relative="1" as="geometry">
                        <mxPoint x="185" y="600" as="targetPoint"/>
                    </mxGeometry>
                </mxCell>
                <mxCell id="iiIGLI2l7tCZnAi1BfDW-3" value="Encrypt Image with unique key" style="whiteSpace=wrap;html=1;fontSize=14;rounded=0;" vertex="1" parent="1">
                    <mxGeometry x="60" y="460" width="120" height="60" as="geometry"/>
                </mxCell>
                <mxCell id="iiIGLI2l7tCZnAi1BfDW-4" value="Save Blob to Storage" style="whiteSpace=wrap;html=1;fontSize=14;rounded=0;" vertex="1" parent="1">
                    <mxGeometry x="60" y="780" width="120" height="60" as="geometry"/>
                </mxCell>
                <mxCell id="rumAA7f_7I75piA4Aqyb-4" style="edgeStyle=none;html=1;exitX=0.5;exitY=1;exitDx=0;exitDy=0;entryX=0.5;entryY=0;entryDx=0;entryDy=0;fontSize=14;" edge="1" parent="1" source="iiIGLI2l7tCZnAi1BfDW-8" target="rumAA7f_7I75piA4Aqyb-3">
                    <mxGeometry relative="1" as="geometry"/>
                </mxCell>
                <mxCell id="iiIGLI2l7tCZnAi1BfDW-8" value="Encrypt Unique key using RSA public key" style="whiteSpace=wrap;html=1;fontSize=14;rounded=0;" vertex="1" parent="1">
                    <mxGeometry x="200" y="460" width="120" height="60" as="geometry"/>
                </mxCell>
                <mxCell id="rumAA7f_7I75piA4Aqyb-3" value="Save Image Metadata + Encrypted Key" style="whiteSpace=wrap;html=1;fontSize=14;rounded=0;" vertex="1" parent="1">
                    <mxGeometry x="200" y="660" width="120" height="60" as="geometry"/>
                </mxCell>
                <mxCell id="-aMRNeoOX8iqkM_VXLn5-1" value="Galary Backend&lt;br&gt;Service" style="rounded=0;whiteSpace=wrap;html=1;fontSize=14;align=left;verticalAlign=top;" vertex="1" parent="1">
                    <mxGeometry x="530" y="250" width="280" height="300" as="geometry"/>
                </mxCell>
                <mxCell id="-aMRNeoOX8iqkM_VXLn5-8" value="" style="edgeStyle=none;html=1;fontSize=14;" edge="1" parent="1" source="-aMRNeoOX8iqkM_VXLn5-3" target="-aMRNeoOX8iqkM_VXLn5-7">
                    <mxGeometry relative="1" as="geometry"/>
                </mxCell>
                <mxCell id="-aMRNeoOX8iqkM_VXLn5-3" value="Get Image Metadata + Encrypted Key" style="whiteSpace=wrap;html=1;fontSize=14;rounded=0;" vertex="1" parent="1">
                    <mxGeometry x="545" y="660" width="120" height="60" as="geometry"/>
                </mxCell>
                <mxCell id="-aMRNeoOX8iqkM_VXLn5-10" value="" style="edgeStyle=none;html=1;fontSize=14;entryX=0.75;entryY=1;entryDx=0;entryDy=0;" edge="1" parent="1" source="-aMRNeoOX8iqkM_VXLn5-4" target="-aMRNeoOX8iqkM_VXLn5-6">
                    <mxGeometry relative="1" as="geometry"/>
                </mxCell>
                <mxCell id="-aMRNeoOX8iqkM_VXLn5-4" value="Read Blob from Storage" style="whiteSpace=wrap;html=1;fontSize=14;rounded=0;" vertex="1" parent="1">
                    <mxGeometry x="650" y="780" width="120" height="60" as="geometry"/>
                </mxCell>
                <mxCell id="-aMRNeoOX8iqkM_VXLn5-13" value="" style="edgeStyle=none;html=1;fontSize=14;entryX=0.5;entryY=1;entryDx=0;entryDy=0;" edge="1" parent="1" source="-aMRNeoOX8iqkM_VXLn5-5" target="-aMRNeoOX8iqkM_VXLn5-12">
                    <mxGeometry relative="1" as="geometry"/>
                </mxCell>
                <mxCell id="-aMRNeoOX8iqkM_VXLn5-5" value="TLS Encrypt" style="whiteSpace=wrap;html=1;fontSize=14;rounded=0;" vertex="1" parent="1">
                    <mxGeometry x="600" y="290" width="120" height="60" as="geometry"/>
                </mxCell>
                <mxCell id="-aMRNeoOX8iqkM_VXLn5-6" value="Decrypt Image" style="whiteSpace=wrap;html=1;fontSize=14;rounded=0;" vertex="1" parent="1">
                    <mxGeometry x="570" y="370" width="180" height="60" as="geometry"/>
                </mxCell>
                <mxCell id="-aMRNeoOX8iqkM_VXLn5-11" value="" style="edgeStyle=none;html=1;fontSize=14;" edge="1" parent="1" source="-aMRNeoOX8iqkM_VXLn5-7" target="-aMRNeoOX8iqkM_VXLn5-6">
                    <mxGeometry relative="1" as="geometry"/>
                </mxCell>
                <mxCell id="-aMRNeoOX8iqkM_VXLn5-7" value="Decrypt key using RSA private key" style="whiteSpace=wrap;html=1;fontSize=14;rounded=0;" vertex="1" parent="1">
                    <mxGeometry x="545" y="469" width="120" height="60" as="geometry"/>
                </mxCell>
                <mxCell id="-aMRNeoOX8iqkM_VXLn5-15" value="" style="edgeStyle=none;html=1;fontSize=14;" edge="1" parent="1" source="-aMRNeoOX8iqkM_VXLn5-12" target="-aMRNeoOX8iqkM_VXLn5-14">
                    <mxGeometry relative="1" as="geometry"/>
                </mxCell>
                <mxCell id="-aMRNeoOX8iqkM_VXLn5-12" value="TLS Decrypt" style="whiteSpace=wrap;html=1;fontSize=14;rounded=0;" vertex="1" parent="1">
                    <mxGeometry x="600" y="130" width="120" height="60" as="geometry"/>
                </mxCell>
                <mxCell id="-aMRNeoOX8iqkM_VXLn5-14" value="" style="sketch=0;outlineConnect=0;fontColor=#232F3E;gradientColor=none;fillColor=#D45B07;strokeColor=none;dashed=0;verticalLabelPosition=bottom;verticalAlign=top;align=center;html=1;fontSize=12;fontStyle=0;aspect=fixed;pointerEvents=1;shape=mxgraph.aws4.container_registry_image;" vertex="1" parent="1">
                    <mxGeometry x="636" y="34" width="48" height="48" as="geometry"/>
                </mxCell>
                <mxCell id="-aMRNeoOX8iqkM_VXLn5-27" value="Update&lt;br&gt;Public&lt;br&gt;Key" style="edgeStyle=none;html=1;exitX=0;exitY=0.5;exitDx=0;exitDy=0;entryX=1;entryY=0.5;entryDx=0;entryDy=0;fontSize=14;" edge="1" parent="1" source="-aMRNeoOX8iqkM_VXLn5-23" target="iiIGLI2l7tCZnAi1BfDW-8">
                    <mxGeometry x="-1" y="-42" relative="1" as="geometry">
                        <mxPoint x="4" y="-4" as="offset"/>
                    </mxGeometry>
                </mxCell>
                <mxCell id="-aMRNeoOX8iqkM_VXLn5-28" value="Update&lt;br&gt;Private&lt;br&gt;Key" style="edgeStyle=none;html=1;exitX=1;exitY=0.5;exitDx=0;exitDy=0;entryX=0;entryY=0.5;entryDx=0;entryDy=0;fontSize=14;" edge="1" parent="1" source="-aMRNeoOX8iqkM_VXLn5-23" target="-aMRNeoOX8iqkM_VXLn5-7">
                    <mxGeometry x="-1" y="35" relative="1" as="geometry">
                        <mxPoint x="390" y="419" as="sourcePoint"/>
                        <mxPoint x="330" y="500" as="targetPoint"/>
                        <mxPoint x="-10" y="-11" as="offset"/>
                    </mxGeometry>
                </mxCell>
            </root>
        </mxGraphModel>
    </diagram>
</mxfile>